# xmcd
#
# Track frame offsets:
# 150
# 24133
# 43214
# 60649
# 79259
# 101156
# 116080
# 137285
# 161717
# 180462
# 199393
# 215874
# 231295
# 251594
#
# Disc length: 3637 seconds
#
#
# Revision: 0
# Processed by: cddbd v1.5.2PL0 Copyright (c) Steve Scherf et al.
# Submitted via: FreeRIP 2.945 
#
DISCID=c80e330e
DTITLE=Grandes Vozes Interpretam Xirú Antunes - 
DYEAR=1900
DGENRE=
TTITLE0=Aos Olhos da Terra - Luiz Marenco
TTITLE1=Sonho - Adriano Gomes e Joca Martins
TTITLE2=Coplas Campeiras - Luiz Marenco
TTITLE3=Recado para o "João Mulato" - Joca Martins
TTITLE4=Coplas Campeiras de um Retorno - Jarri Terres
TTITLE5=Final de Esquila - Joca Martins
TTITLE6=Casta - Xirú Antunes
TTITLE7=Olhos Pampa - Luiz Marenco
TTITLE8=Posto de Doma - Jarri Terres
TTITLE9=Cuatro Molduras para La Soledad - Luiz Marenco e Jarri Terres
TTITLE10=Perfil de Noite e Estância - Roberto Luçardo
TTITLE11=Cuando un Sueño Deja El Nido - Joca Martins
TTITLE12=Este Jeito de Domingo - Luiz Marenco
TTITLE13=Canto aos Filhos dos Pajonais - Roberto Luçardo
EXTD=
EXTT0=
EXTT1=
EXTT2=
EXTT3=
EXTT4=
EXTT5=
EXTT6=
EXTT7=
EXTT8=
EXTT9=
EXTT10=
EXTT11=
EXTT12=
EXTT13=
PLAYORDER=
